<svg width="230" height="23" viewBox="0 0 230 23" fill="none" xmlns="http://www.w3.org/2000/svg">
<path d="M24.503 16.6168H8.28496L7.04597 22.902H0L4.44471 0.684448H26.7585C27.2667 0.684448 27.7358 0.789702 28.1719 1.00322C28.6049 1.21372 28.9718 1.50543 29.2665 1.87532C29.5612 2.24521 29.7807 2.66322 29.9161 3.12934C30.0544 3.59546 30.0694 4.08263 29.9642 4.58785L28.1538 13.6336C27.9854 14.5027 27.5554 15.2155 26.8697 15.7748C26.1811 16.3341 25.3932 16.6168 24.503 16.6168ZM9.33148 11.4113H21.3304C21.4988 11.4113 21.6491 11.3602 21.7755 11.2519C21.9018 11.1467 21.986 11.0083 22.0281 10.8399L22.8521 6.74405C22.8942 6.51249 22.84 6.30499 22.6927 6.12455C22.5453 5.94412 22.3528 5.8539 22.1213 5.8539H6.50466L10.2186 6.96357L9.33148 11.4113Z" fill="#2B2B2B"/>
<path d="M46.0572 16.617H36.44L35.171 22.9021H28.5039L32.3442 3.66776C32.5126 2.77761 32.9426 2.05888 33.6282 1.50855C34.3169 0.958229 35.1048 0.68457 35.9919 0.68457H51.386C51.9785 0.68457 52.5228 0.807867 53.022 1.04845C53.5182 1.29203 53.9302 1.61982 54.261 2.03182C54.5887 2.44381 54.8263 2.91595 54.9737 3.44522C55.121 3.9745 55.133 4.52482 55.0067 5.0962L51.4522 22.9021H44.7851L46.0572 16.617ZM37.4535 11.4114H47.1037L48.0239 6.74718C48.066 6.51562 48.0119 6.30812 47.8645 6.12768C47.7172 5.94725 47.5247 5.85703 47.2932 5.85703H39.2007C38.7766 5.85703 38.5331 6.05852 38.4699 6.46149L37.4535 11.4114Z" fill="#2B2B2B"/>
<path d="M74.05 22.9021H53.5767L58.0214 0.68457H79.4149C80.0073 0.68457 80.5516 0.807867 81.0508 1.04845C81.547 1.29203 81.959 1.61982 82.2898 2.03182C82.6176 2.44381 82.8552 2.91595 83.0055 3.44522C83.1529 3.9745 83.174 4.52482 83.0687 5.0962L80.5607 17.5372C80.4133 18.3191 80.1366 19.0408 79.7367 19.6964C79.3337 20.3519 78.8465 20.9173 78.2752 21.3955C77.7038 21.8706 77.0572 22.2435 76.3385 22.5051C75.6137 22.7698 74.8529 22.9021 74.05 22.9021ZM76.0498 6.74417C76.0919 6.51261 76.0438 6.30511 75.9085 6.12468C75.7701 5.94424 75.5867 5.85402 75.3521 5.85402H63.6389L61.2902 17.7236H73.2561C73.4245 17.7236 73.5779 17.6665 73.7162 17.5492C73.8545 17.4319 73.9447 17.2906 73.9868 17.1222L76.0498 6.74417Z" fill="#2B2B2B"/>
<path d="M101.856 14.3947H90.0164L89.3488 17.7267H103.411L102.364 22.8992H81.6382L86.0829 0.681641H106.809L105.792 5.8541H91.7004L91.0328 9.18613H102.902L101.856 14.3947Z" fill="#2B2B2B"/>
<path d="M109.76 0.681641H117.154L113.759 17.7267H127.535L126.489 22.8992H105.318L109.76 0.681641Z" fill="#2B2B2B"/>
<path d="M135.416 5.83164L139.13 6.94132L137.163 16.8141C137.121 17.0487 137.175 17.2532 137.322 17.4336C137.47 17.614 137.659 17.7042 137.894 17.7042H146.591C146.972 17.7042 147.213 17.5028 147.321 17.0998L147.64 15.4819H154.307L153.417 19.8935C153.249 20.7837 152.825 21.5024 152.148 22.0527C151.471 22.603 150.689 22.8767 149.799 22.8767H133.262C132.754 22.8767 132.279 22.7715 131.834 22.5579C131.389 22.3474 131.019 22.0557 130.724 21.6858C130.427 21.3159 130.216 20.8979 130.09 20.4318C129.963 19.9657 129.951 19.4785 130.057 18.9733L133.136 3.64237C133.305 2.75223 133.729 2.03349 134.405 1.48317C135.082 0.932841 135.864 0.65918 136.754 0.65918H152.909C153.48 0.65918 154.015 0.782479 154.512 1.02306C155.008 1.26665 155.426 1.59444 155.766 2.00643C156.102 2.41842 156.346 2.89056 156.496 3.41983C156.644 3.94911 156.656 4.49943 156.529 5.07081L155.925 8.054H149.261L149.547 6.72179C149.589 6.49023 149.535 6.28273 149.387 6.10229C149.24 5.92186 149.047 5.83164 148.816 5.83164H135.416Z" fill="#3C87DD"/>
<path d="M159.508 0.65918H166.903L163.508 17.7042H176.4L175.354 22.8767H155.067L159.508 0.65918Z" fill="#3C87DD"/>
<path d="M183.945 16.8141C183.903 17.0487 183.957 17.2532 184.105 17.4336C184.252 17.614 184.441 17.7042 184.676 17.7042H192.768C192.937 17.7042 193.09 17.6471 193.228 17.5298C193.367 17.4125 193.457 17.2712 193.499 17.0998L196.801 0.65918H203.468L199.628 19.8935C199.46 20.7837 199.029 21.5024 198.344 22.0527C197.655 22.603 196.867 22.8767 195.98 22.8767H180.586C179.994 22.8767 179.449 22.7564 178.95 22.5128C178.454 22.2692 178.039 21.9415 177.711 21.5295C177.383 21.1175 177.146 20.6393 176.995 20.101C176.848 19.5627 176.827 19.0064 176.932 18.435L180.487 0.65918H187.154L183.945 16.8141Z" fill="#3C87DD"/>
<path d="M224.987 22.8767H201.943L206.387 0.65918H226.289C226.882 0.65918 227.426 0.782479 227.925 1.02306C228.421 1.26665 228.833 1.59444 229.164 2.00643C229.492 2.41842 229.73 2.89056 229.88 3.41983C230.027 3.94911 230.039 4.49943 229.913 5.07081L229.215 8.65845C229.068 9.33508 228.722 9.90044 228.184 10.3575C227.646 10.8116 227.014 11.0402 226.295 11.0402H226.77C227.237 11.0402 227.67 11.1394 228.073 11.3409C228.476 11.5424 228.806 11.807 229.074 12.1348C229.339 12.4626 229.528 12.8385 229.645 13.2625C229.763 13.6866 229.778 14.1196 229.693 14.5647L228.614 19.8965C228.445 20.7867 228.021 21.5054 227.345 22.0557C226.656 22.603 225.874 22.8767 224.987 22.8767ZM222.257 17.5118C222.383 17.4065 222.467 17.2682 222.509 17.0998L223.081 14.1467C223.123 13.9151 223.075 13.7076 222.939 13.5272C222.801 13.3467 222.617 13.2565 222.383 13.2565H210.892L210.002 17.7012H221.778C221.95 17.7042 222.109 17.6381 222.257 17.5118ZM212.384 5.83164L211.782 8.81483H221.908C222.29 8.81483 222.53 8.61334 222.638 8.21037L222.924 6.71878C222.966 6.48722 222.912 6.27972 222.765 6.09929C222.617 5.91885 222.425 5.82863 222.193 5.82863H212.384V5.83164Z" fill="#3C87DD"/>
</svg>
