<svg width="306" height="62" viewBox="0 0 306 62" fill="none" xmlns="http://www.w3.org/2000/svg">
<path d="M33.1935 21.8457H11.6632L10.0184 30.1895H0.664551L6.56511 0.694702H36.1877C36.8623 0.694702 37.4851 0.834432 38.064 1.11788C38.6389 1.39734 39.126 1.78459 39.5172 2.27564C39.9084 2.76668 40.1999 3.32161 40.3795 3.94041C40.5632 4.55921 40.5831 5.20595 40.4434 5.87665L38.0401 17.8854C37.8165 19.0391 37.2456 19.9853 36.3354 20.7279C35.4211 21.4704 34.3752 21.8457 33.1935 21.8457ZM13.0525 14.9351H28.9816C29.2052 14.9351 29.4048 14.8672 29.5725 14.7235C29.7402 14.5838 29.8519 14.4001 29.9078 14.1766L31.0017 8.7391C31.0576 8.4317 30.9857 8.15623 30.7901 7.9167C30.5945 7.67716 30.339 7.55739 30.0316 7.55739H9.29979L14.2302 9.03054L13.0525 14.9351Z" fill="#2B2B2B"/>
<path d="M61.806 21.8456H49.0387L47.354 30.1894H38.5032L43.6013 4.6549C43.8248 3.47319 44.3957 2.51904 45.306 1.78846C46.2202 1.05787 47.2662 0.69458 48.4439 0.69458H68.8803C69.6667 0.69458 70.3893 0.858262 71.0521 1.17764C71.7108 1.50102 72.2577 1.93617 72.6969 2.48311C73.132 3.03005 73.4474 3.65684 73.643 4.35947C73.8386 5.06211 73.8546 5.79269 73.6869 6.55122L68.9681 30.1894H60.1173L61.806 21.8456ZM50.3841 14.935H63.1953L64.4169 8.74297C64.4728 8.43557 64.4009 8.1601 64.2053 7.92057C64.0097 7.68103 63.7542 7.56126 63.4468 7.56126H52.7036C52.1407 7.56126 51.8173 7.82875 51.7335 8.36371L50.3841 14.935Z" fill="#2B2B2B"/>
<path d="M98.9696 30.1894H71.7903L77.6909 0.69458H106.092C106.878 0.69458 107.601 0.858262 108.264 1.17764C108.922 1.50102 109.469 1.93617 109.908 2.48311C110.344 3.03005 110.659 3.65684 110.859 4.35947C111.054 5.06211 111.082 5.79269 110.942 6.55122L107.613 23.0672C107.417 24.1052 107.05 25.0633 106.519 25.9336C105.984 26.8039 105.337 27.5545 104.579 28.1893C103.82 28.82 102.962 29.3151 102.008 29.6624C101.046 30.0137 100.036 30.1894 98.9696 30.1894ZM101.624 8.73898C101.68 8.43158 101.616 8.15611 101.437 7.91658C101.253 7.67704 101.01 7.55727 100.698 7.55727H85.1484L82.0304 23.3147H97.9156C98.1392 23.3147 98.3428 23.2389 98.5264 23.0832C98.7101 22.9275 98.8298 22.7398 98.8857 22.5163L101.624 8.73898Z" fill="#2B2B2B"/>
<path d="M135.882 18.8951H120.165L119.279 23.3186H137.946L136.557 30.1852H109.042L114.943 0.69043H142.458L141.108 7.55711H122.401L121.514 11.9805H137.272L135.882 18.8951Z" fill="#2B2B2B"/>
<path d="M146.374 0.69043H156.191L151.684 23.3186H169.972L168.583 30.1852H140.478L146.374 0.69043Z" fill="#2B2B2B"/>
<path d="M180.436 7.52575L185.367 8.99889L182.756 22.1055C182.7 22.4169 182.772 22.6883 182.967 22.9279C183.163 23.1674 183.414 23.2872 183.726 23.2872H195.271C195.778 23.2872 196.098 23.0197 196.242 22.4847L196.665 20.3369H205.516L204.334 26.1935C204.11 27.3753 203.547 28.3294 202.649 29.06C201.751 29.7906 200.713 30.1539 199.531 30.1539H177.578C176.903 30.1539 176.272 30.0141 175.681 29.7307C175.091 29.4512 174.599 29.064 174.208 28.5729C173.813 28.0819 173.534 27.527 173.366 26.9082C173.198 26.2894 173.182 25.6426 173.322 24.9719L177.41 4.61938C177.634 3.43767 178.197 2.48352 179.095 1.75294C179.993 1.02236 181.031 0.659058 182.213 0.659058H203.659C204.418 0.659058 205.128 0.822743 205.787 1.14212C206.446 1.4655 207.001 1.90065 207.452 2.44759C207.899 2.99453 208.222 3.62132 208.422 4.32395C208.618 5.02659 208.633 5.75718 208.466 6.51571L207.663 10.476H198.817L199.196 8.70745C199.252 8.40005 199.18 8.12458 198.984 7.88505C198.789 7.64551 198.533 7.52575 198.226 7.52575H180.436Z" fill="#3C87DD"/>
<path d="M212.418 0.658936H222.235L217.728 23.2871H234.843L233.453 30.1537H206.521L212.418 0.658936Z" fill="#3C87DD"/>
<path d="M244.859 22.1053C244.804 22.4167 244.875 22.6882 245.071 22.9278C245.267 23.1673 245.518 23.2871 245.83 23.2871H256.573C256.796 23.2871 257 23.2112 257.184 23.0555C257.367 22.8998 257.487 22.7122 257.543 22.4846L261.926 0.658936H270.777L265.679 26.1934C265.456 27.3751 264.885 28.3293 263.974 29.0599C263.06 29.7905 262.014 30.1537 260.836 30.1537H240.4C239.614 30.1537 238.891 29.9941 238.228 29.6707C237.57 29.3473 237.019 28.9122 236.583 28.3652C236.148 27.8183 235.833 27.1835 235.633 26.4689C235.438 25.7543 235.41 25.0157 235.549 24.2572L240.268 0.658936H249.119L244.859 22.1053Z" fill="#3C87DD"/>
<path d="M299.346 30.1537H268.753L274.653 0.658936H301.074C301.861 0.658936 302.583 0.822621 303.246 1.142C303.905 1.46537 304.452 1.90053 304.891 2.44747C305.326 2.99441 305.641 3.62119 305.841 4.32383C306.037 5.02647 306.053 5.75705 305.885 6.51558L304.959 11.2783C304.763 12.1766 304.304 12.9271 303.589 13.534C302.875 14.1368 302.036 14.4402 301.082 14.4402H301.713C302.332 14.4402 302.907 14.572 303.442 14.8394C303.977 15.1069 304.416 15.4582 304.771 15.8934C305.122 16.3286 305.374 16.8276 305.53 17.3905C305.685 17.9534 305.705 18.5283 305.593 19.1191L304.16 26.1974C303.937 27.3791 303.374 28.3333 302.476 29.0639C301.561 29.7904 300.523 30.1537 299.346 30.1537ZM295.721 23.0316C295.888 22.8918 296 22.7082 296.056 22.4846L296.815 18.5642C296.87 18.2568 296.807 17.9813 296.627 17.7418C296.443 17.5023 296.2 17.3825 295.888 17.3825H280.634L279.452 23.2831H295.086C295.313 23.2871 295.525 23.1992 295.721 23.0316ZM282.614 7.52562L281.816 11.4859H295.258C295.765 11.4859 296.084 11.2185 296.228 10.6835L296.607 8.70334C296.663 8.39594 296.591 8.12047 296.395 7.88094C296.2 7.6414 295.944 7.52163 295.637 7.52163H282.614V7.52562Z" fill="#3C87DD"/>
<path d="M256.672 43.0146H50.2097V61.9997H256.672V43.0146Z" fill="#2B2B2B"/>
<path d="M83.6774 48.9938C83.7115 48.8283 83.7261 48.6092 83.7261 48.3269C83.7261 48.1614 83.7163 48.0056 83.692 47.845C83.6725 47.6892 83.6336 47.548 83.58 47.4214C83.5265 47.2949 83.4437 47.1975 83.3366 47.1294C83.2295 47.0564 83.0884 47.0223 82.9131 47.0223C82.7184 47.0223 82.5383 47.0661 82.3727 47.1537C82.2121 47.2413 82.0661 47.3533 81.9395 47.4896C81.8129 47.6259 81.7156 47.7817 81.6474 47.9618C81.5744 48.1419 81.5403 48.3269 81.5403 48.5265C81.5403 48.8088 81.6133 49.0279 81.7594 49.1788C81.9054 49.3297 82.1001 49.4563 82.3387 49.5536C82.5772 49.651 82.8498 49.7338 83.1516 49.797C83.4535 49.8603 83.7699 49.9382 84.096 50.0258C84.3686 50.1037 84.6413 50.2011 84.909 50.3179C85.1816 50.4396 85.4201 50.6003 85.6343 50.7999C85.8485 50.9995 86.0189 51.2623 86.1455 51.5836C86.2769 51.9049 86.3402 52.3041 86.3402 52.7812C86.3402 53.4675 86.2039 54.042 85.9313 54.5093C85.6587 54.9766 85.2838 55.3563 84.8068 55.6484C84.3297 55.9405 83.7601 56.1547 83.103 56.2861C82.4458 56.4176 81.7302 56.4809 80.961 56.4809C80.1773 56.4809 79.5396 56.4273 79.043 56.3251C78.5465 56.2229 78.1619 56.1109 77.8796 55.9892C77.5437 55.848 77.2905 55.6874 77.1299 55.5024L77.6848 53.268H80.5521C80.5424 53.3653 80.5278 53.4968 80.518 53.6671C80.5083 53.8375 80.5034 53.969 80.5034 54.0663C80.5034 54.1978 80.518 54.3341 80.5521 54.4752C80.5862 54.6164 80.6349 54.7478 80.7079 54.8647C80.7809 54.9864 80.8783 55.0837 81.0097 55.1567C81.1411 55.2346 81.3018 55.2687 81.4965 55.2687C81.7156 55.2687 81.9054 55.22 82.0758 55.1227C82.2462 55.0253 82.3874 54.9036 82.4993 54.7576C82.6113 54.6115 82.6989 54.446 82.7622 54.2708C82.8206 54.0907 82.8498 53.9154 82.8498 53.7401C82.8498 53.5016 82.7914 53.302 82.6794 53.1365C82.5675 52.971 82.4117 52.8347 82.217 52.7227C82.0223 52.6108 81.7935 52.5085 81.5403 52.4307C81.2872 52.3479 81.0194 52.2651 80.7517 52.1775C80.4888 52.0996 80.2162 52.0071 79.929 51.9C79.6418 51.7929 79.3789 51.6372 79.1404 51.4424C78.9018 51.2477 78.7023 50.9995 78.5465 50.7025C78.3907 50.4056 78.308 50.021 78.308 49.5536C78.308 48.8575 78.4832 48.2734 78.8386 47.8012C79.1939 47.329 79.6369 46.9444 80.1773 46.6523C80.7176 46.3602 81.3066 46.1509 81.9444 46.0243C82.5869 45.8978 83.1954 45.8345 83.7699 45.8345C84.5293 45.8345 85.1865 45.9221 85.7366 46.1022C86.2866 46.2823 86.7004 46.4917 86.9828 46.7302L86.3791 48.9987H83.6774V48.9938Z" fill="#D2EE04"/>
<path d="M89.7576 53.0685C89.7138 53.307 89.6846 53.5358 89.67 53.7548C89.6553 53.9739 89.6456 54.1686 89.6456 54.3439C89.6456 54.4412 89.6505 54.5483 89.6602 54.67C89.6699 54.7917 89.6943 54.8988 89.7332 55.0059C89.7722 55.1082 89.8257 55.1958 89.8988 55.2688C89.9718 55.3418 90.0691 55.3759 90.2006 55.3759C90.2979 55.3759 90.4099 55.3418 90.5365 55.2785C90.663 55.2153 90.7847 55.1228 90.9113 55.0011C91.0379 54.8842 91.1547 54.7333 91.2715 54.5629C91.3835 54.3877 91.476 54.193 91.5393 53.9739H94.2118L93.7883 55.7167C93.5692 55.8578 93.321 55.9795 93.0386 56.0769C92.7563 56.1743 92.4593 56.2521 92.1429 56.3154C91.8265 56.3738 91.5052 56.4177 91.179 56.4469C90.8529 56.4712 90.5413 56.4858 90.2493 56.4858C89.704 56.4858 89.1977 56.4371 88.7304 56.3398C88.2631 56.2424 87.8542 56.072 87.5085 55.8335C87.158 55.595 86.8854 55.2785 86.6858 54.8794C86.4863 54.485 86.384 53.9885 86.384 53.4043C86.384 52.8737 86.4668 52.3529 86.6372 51.8368C86.8075 51.3257 87.0899 50.873 87.4842 50.4738C87.8785 50.0795 88.414 49.7582 89.0809 49.5197C89.7478 49.2811 90.5851 49.1594 91.5831 49.1594C92.6687 49.1594 93.4865 49.3298 94.0366 49.6657C94.5867 50.0016 94.8593 50.5322 94.8593 51.2478C94.8593 51.5399 94.8155 51.8612 94.7278 52.2019C94.6402 52.5427 94.5088 52.8348 94.3384 53.0733H89.7576V53.0685ZM91.9238 51.131C91.9238 50.7951 91.8703 50.5663 91.7632 50.4446C91.6561 50.3229 91.5247 50.2645 91.3738 50.2645C91.1985 50.2645 91.0379 50.3229 90.8918 50.4348C90.7458 50.5468 90.6144 50.7026 90.4927 50.8924C90.371 51.0823 90.2638 51.3014 90.1665 51.5448C90.0691 51.7882 89.9864 52.0462 89.9231 52.3188H91.7827C91.8021 52.1873 91.8265 52.051 91.846 51.9099C91.8654 51.793 91.8849 51.6616 91.9044 51.5204C91.919 51.3792 91.9238 51.2478 91.9238 51.131Z" fill="#D2EE04"/>
<path d="M95.8227 49.3344H98.4806L98.724 50.5563H98.836C99.0842 50.1668 99.4055 49.831 99.7998 49.5632C100.189 49.2906 100.705 49.1543 101.348 49.1543C101.392 49.1543 101.46 49.1592 101.552 49.164C101.645 49.1689 101.747 49.1884 101.864 49.2127C101.976 49.2419 102.098 49.276 102.224 49.3247C102.351 49.3734 102.472 49.4415 102.589 49.5291L101.874 52.8881H100.097C100.072 52.2163 100.014 51.7441 99.9167 51.4763C99.8193 51.2086 99.6587 51.0772 99.4445 51.0772C99.3374 51.0772 99.2205 51.1015 99.094 51.1502C98.9674 51.1989 98.8408 51.306 98.7094 51.4666L97.6676 56.3395H94.3428L95.8227 49.3344Z" fill="#D2EE04"/>
<path d="M102.361 49.3345H105.817L106.484 54.1295L108.865 49.3345H110.593L106.893 56.3444H103.485L102.361 49.3345Z" fill="#D2EE04"/>
<path d="M112.939 53.0685C112.895 53.307 112.866 53.5358 112.851 53.7548C112.837 53.9739 112.827 54.1686 112.827 54.3439C112.827 54.4412 112.832 54.5483 112.841 54.67C112.851 54.7917 112.875 54.8988 112.914 55.0059C112.953 55.1082 113.007 55.1958 113.08 55.2688C113.153 55.3418 113.25 55.3759 113.382 55.3759C113.479 55.3759 113.591 55.3418 113.718 55.2785C113.844 55.2153 113.966 55.1228 114.092 55.0011C114.219 54.8842 114.336 54.7333 114.453 54.5629C114.565 54.3877 114.657 54.193 114.72 53.9739H117.393L116.969 55.7167C116.75 55.8578 116.502 55.9795 116.22 56.0769C115.937 56.1743 115.64 56.2521 115.324 56.3154C115.008 56.3738 114.686 56.4177 114.36 56.4469C114.034 56.4712 113.722 56.4858 113.43 56.4858C112.885 56.4858 112.379 56.4371 111.912 56.3398C111.444 56.2424 111.035 56.072 110.69 55.8335C110.339 55.595 110.067 55.2785 109.867 54.8794C109.667 54.4802 109.565 53.9885 109.565 53.4043C109.565 52.8737 109.648 52.3529 109.818 51.8368C109.989 51.3257 110.271 50.873 110.665 50.4738C111.06 50.0795 111.595 49.7582 112.262 49.5197C112.929 49.2811 113.766 49.1594 114.764 49.1594C115.85 49.1594 116.668 49.3298 117.218 49.6657C117.768 50.0016 118.04 50.5322 118.04 51.2478C118.04 51.5399 117.997 51.8612 117.909 52.2019C117.821 52.5427 117.69 52.8348 117.52 53.0733H112.939V53.0685ZM115.11 51.131C115.11 50.7951 115.056 50.5663 114.949 50.4446C114.842 50.3229 114.711 50.2645 114.56 50.2645C114.385 50.2645 114.224 50.3229 114.078 50.4348C113.932 50.5468 113.8 50.7026 113.679 50.8924C113.557 51.0823 113.45 51.3014 113.353 51.5448C113.255 51.7882 113.172 52.0462 113.109 52.3188H114.969C114.988 52.1873 115.013 52.051 115.032 51.9099C115.051 51.793 115.071 51.6616 115.09 51.5204C115.1 51.3792 115.11 51.2478 115.11 51.131Z" fill="#D2EE04"/>
<path d="M120.996 54.9134C120.996 55.1617 120.942 55.3856 120.84 55.5803C120.738 55.775 120.601 55.9405 120.431 56.072C120.26 56.2034 120.071 56.3008 119.852 56.3738C119.633 56.4468 119.404 56.4809 119.165 56.4809C118.751 56.4809 118.401 56.3689 118.114 56.145C117.826 55.9211 117.68 55.5706 117.68 55.0935C117.68 54.8452 117.729 54.6213 117.826 54.4266C117.924 54.2319 118.055 54.0664 118.216 53.9349C118.381 53.8035 118.566 53.7061 118.781 53.6331C118.995 53.5601 119.214 53.526 119.443 53.526C119.891 53.526 120.256 53.638 120.553 53.8619C120.85 54.081 120.996 54.4315 120.996 54.9134Z" fill="#D2EE04"/>
<path d="M130.449 48.9938C130.483 48.8283 130.498 48.6092 130.498 48.3269C130.498 48.1614 130.488 48.0056 130.463 47.845C130.444 47.6892 130.405 47.548 130.352 47.4214C130.298 47.2949 130.215 47.1975 130.108 47.1294C130.001 47.0564 129.86 47.0223 129.685 47.0223C129.49 47.0223 129.31 47.0661 129.144 47.1537C128.979 47.2413 128.838 47.3533 128.711 47.4896C128.584 47.6259 128.487 47.7817 128.419 47.9618C128.346 48.1419 128.312 48.3269 128.312 48.5265C128.312 48.8088 128.385 49.0279 128.531 49.1788C128.677 49.3297 128.872 49.4563 129.11 49.5536C129.349 49.651 129.621 49.7338 129.923 49.797C130.225 49.8603 130.541 49.9382 130.868 50.0258C131.14 50.1037 131.413 50.2011 131.685 50.3179C131.958 50.4396 132.197 50.6003 132.411 50.7999C132.62 50.9995 132.795 51.2623 132.922 51.5836C133.053 51.9049 133.117 52.3041 133.117 52.7812C133.117 53.4675 132.98 54.042 132.708 54.5093C132.435 54.9766 132.06 55.3563 131.583 55.6484C131.106 55.9405 130.537 56.1547 129.879 56.2861C129.222 56.4176 128.507 56.4809 127.737 56.4809C126.954 56.4809 126.316 56.4273 125.824 56.3251C125.328 56.2229 124.943 56.1109 124.661 55.9892C124.325 55.848 124.072 55.6874 123.911 55.5024L124.466 53.268H127.333C127.324 53.3653 127.314 53.4968 127.299 53.6671C127.29 53.8375 127.285 53.969 127.285 54.0663C127.285 54.1978 127.299 54.3341 127.333 54.4752C127.367 54.6164 127.416 54.7478 127.489 54.8647C127.557 54.9864 127.66 55.0837 127.791 55.1567C127.922 55.2346 128.083 55.2687 128.278 55.2687C128.497 55.2687 128.687 55.22 128.857 55.1227C129.027 55.0253 129.169 54.9036 129.281 54.7576C129.393 54.6115 129.48 54.446 129.543 54.2708C129.602 54.0907 129.631 53.9154 129.631 53.7401C129.631 53.5016 129.573 53.302 129.461 53.1365C129.349 52.971 129.193 52.8347 128.998 52.7227C128.803 52.6108 128.575 52.5085 128.322 52.4307C128.064 52.3479 127.801 52.2651 127.533 52.1775C127.27 52.0996 126.997 52.0071 126.71 51.9C126.423 51.7929 126.16 51.6372 125.922 51.4424C125.683 51.2477 125.484 50.9995 125.328 50.7025C125.172 50.4056 125.089 50.021 125.089 49.5536C125.089 48.8575 125.264 48.2734 125.62 47.8012C125.975 47.329 126.418 46.9444 126.959 46.6523C127.499 46.3602 128.088 46.1509 128.726 46.0243C129.368 45.8978 129.977 45.8345 130.551 45.8345C131.311 45.8345 131.968 45.9221 132.518 46.1022C133.068 46.2823 133.482 46.4917 133.764 46.7302L133.16 48.9987H130.449V48.9938Z" fill="#D2EE04"/>
<path d="M137.347 50.3762C137.576 50.1571 137.829 49.9575 138.111 49.7725C138.36 49.6216 138.661 49.4805 139.007 49.349C139.353 49.2176 139.747 49.1543 140.18 49.1543C140.701 49.1543 141.091 49.276 141.344 49.5145C141.597 49.7531 141.743 50.0451 141.777 50.3956H141.874C142.123 50.1668 142.395 49.9624 142.687 49.7774C142.936 49.6265 143.233 49.4853 143.568 49.3539C143.904 49.2225 144.265 49.1592 144.644 49.1592C145.209 49.1592 145.667 49.3149 146.022 49.6216C146.377 49.9332 146.552 50.3324 146.552 50.8192C146.552 51.0674 146.509 51.3985 146.421 51.8122C146.333 52.226 146.236 52.6788 146.129 53.1656L145.443 56.3444H142.23L143.111 52.0897C143.145 51.9242 143.174 51.7684 143.208 51.6175C143.242 51.4666 143.257 51.34 143.257 51.2427C143.257 51.0918 143.213 50.9652 143.125 50.8581C143.038 50.751 142.916 50.7023 142.751 50.7023C142.546 50.7023 142.351 50.7754 142.171 50.9214C141.991 51.0674 141.855 51.1891 141.758 51.2865L140.696 56.3395H137.649L138.545 52.0849C138.564 51.9437 138.593 51.7976 138.627 51.6516C138.661 51.5056 138.676 51.3741 138.676 51.2524C138.676 51.0918 138.637 50.9555 138.554 50.8532C138.472 50.751 138.35 50.6975 138.189 50.6975C137.995 50.6975 137.805 50.7705 137.625 50.9117C137.444 51.0528 137.308 51.1745 137.211 51.2719L136.135 56.3444H132.81L134.295 49.3344H136.953L137.245 50.3762H137.347Z" fill="#D2EE04"/>
<path d="M147.57 49.9381C148.125 49.6654 148.694 49.4659 149.274 49.3441C149.853 49.2176 150.505 49.1543 151.221 49.1543C151.917 49.1543 152.491 49.2079 152.949 49.3198C153.407 49.4269 153.772 49.5876 154.039 49.792C154.312 49.9965 154.502 50.2447 154.609 50.5271C154.716 50.8094 154.774 51.1307 154.774 51.491C154.774 51.6954 154.76 51.9193 154.736 52.1579C154.706 52.3964 154.677 52.596 154.648 52.7615L153.884 56.3492H151.26L150.968 55.3075H150.87C150.52 55.6872 150.116 55.9793 149.653 56.1789C149.191 56.3785 148.733 56.4807 148.276 56.4807C148.013 56.4807 147.76 56.4417 147.511 56.3687C147.263 56.2908 147.039 56.174 146.844 56.0182C146.65 55.8624 146.489 55.658 146.372 55.4146C146.251 55.1712 146.192 54.8742 146.192 54.5237C146.192 53.959 146.348 53.5112 146.659 53.1802C146.971 52.8491 147.375 52.6009 147.881 52.4305C148.388 52.2601 148.957 52.1579 149.595 52.1141C150.233 52.0702 150.87 52.0508 151.513 52.0508C151.532 51.9437 151.562 51.7879 151.596 51.5883C151.63 51.3887 151.644 51.2086 151.644 51.0577C151.644 50.863 151.591 50.678 151.489 50.5125C151.386 50.3421 151.172 50.2593 150.846 50.2593C150.466 50.2593 150.184 50.3713 150.004 50.5952C149.824 50.8192 149.707 51.0869 149.653 51.4033H147.273L147.57 49.9381ZM151.318 52.8053H151.026C150.71 52.8053 150.442 52.8443 150.218 52.927C149.994 53.0098 149.814 53.1169 149.678 53.2434C149.541 53.3749 149.439 53.5209 149.376 53.6816C149.313 53.8471 149.278 54.0077 149.278 54.1684C149.278 54.4312 149.347 54.626 149.483 54.7574C149.619 54.8888 149.78 54.9521 149.965 54.9521C150.194 54.9521 150.418 54.8694 150.642 54.7087C150.865 54.5432 151.002 54.329 151.055 54.0564L151.318 52.8053Z" fill="#D2EE04"/>
<path d="M159.779 51.3889C159.789 51.3353 159.799 51.2818 159.813 51.2234C159.823 51.1698 159.828 51.1114 159.828 51.0432C159.828 50.8485 159.794 50.6635 159.721 50.498C159.648 50.3276 159.511 50.2449 159.307 50.2449C159.122 50.2449 158.937 50.3228 158.752 50.4834C158.567 50.6392 158.474 50.8485 158.474 51.1114C158.474 51.2866 158.518 51.423 158.611 51.5252C158.703 51.6274 158.825 51.715 158.976 51.7783C159.127 51.8416 159.297 51.9 159.487 51.9438C159.677 51.9876 159.867 52.0315 160.052 52.0753C160.315 52.1385 160.558 52.2213 160.792 52.3138C161.025 52.4063 161.235 52.528 161.42 52.6789C161.605 52.8298 161.751 53.0197 161.858 53.2436C161.965 53.4675 162.023 53.7401 162.023 54.0663C162.023 54.5239 161.916 54.9085 161.707 55.2152C161.498 55.5267 161.201 55.775 160.826 55.9648C160.451 56.1547 160.008 56.2861 159.506 56.364C159 56.4419 158.46 56.476 157.885 56.476C157.004 56.476 156.279 56.4127 155.7 56.2812C155.125 56.1498 154.721 56.0281 154.492 55.9064L154.833 54.2756H157.034C157.024 54.3292 157.019 54.3827 157.019 54.4314C157.019 54.4801 157.019 54.5336 157.019 54.5872C157.019 54.8354 157.077 55.035 157.189 55.1811C157.301 55.3271 157.501 55.4001 157.783 55.4001C158.1 55.4001 158.324 55.3125 158.46 55.1324C158.596 54.9523 158.664 54.7868 158.664 54.6359C158.664 54.4849 158.606 54.3486 158.494 54.2367C158.382 54.1247 158.236 54.0225 158.061 53.9446C157.885 53.8618 157.696 53.7937 157.481 53.7353C157.267 53.6768 157.068 53.6184 156.868 53.5649C156.727 53.5308 156.566 53.4773 156.386 53.3994C156.206 53.3215 156.036 53.2144 155.875 53.0732C155.709 52.932 155.578 52.7519 155.466 52.528C155.359 52.3041 155.301 52.0266 155.301 51.6907C155.301 51.2136 155.417 50.8144 155.651 50.4932C155.885 50.1719 156.191 49.9139 156.566 49.7191C156.941 49.5244 157.365 49.3832 157.837 49.2956C158.309 49.208 158.786 49.1642 159.263 49.1642C159.862 49.1642 160.427 49.2177 160.957 49.3297C161.488 49.4368 161.926 49.578 162.262 49.7532L161.887 51.3986H159.779V51.3889Z" fill="#D2EE04"/>
<path d="M166.531 50.3761H166.643C166.848 50.1716 167.091 49.9818 167.359 49.8065C167.588 49.6556 167.86 49.5193 168.177 49.3976C168.493 49.2759 168.844 49.2175 169.238 49.2175C169.803 49.2175 170.27 49.3635 170.64 49.6507C171.01 49.938 171.195 50.3323 171.195 50.8337C171.195 50.9846 171.18 51.155 171.146 51.3448C171.112 51.5347 171.073 51.7343 171.034 51.9485C170.991 52.1626 170.947 52.372 170.898 52.5862C170.849 52.8004 170.81 52.9902 170.776 53.1655L170.09 56.3443H166.78L167.675 52.0896C167.695 51.9485 167.724 51.8024 167.758 51.6564C167.792 51.5103 167.807 51.3789 167.807 51.2572C167.807 51.0966 167.768 50.9602 167.685 50.858C167.602 50.7558 167.481 50.7022 167.32 50.7022C167.125 50.7022 166.936 50.7753 166.755 50.9164C166.575 51.0576 166.439 51.1842 166.342 51.2913L165.266 56.3443H161.941L164.258 45.3864H167.602L166.531 50.3761Z" fill="#D2EE04"/>
<path d="M174.339 54.9134C174.339 55.1617 174.285 55.3856 174.183 55.5803C174.081 55.775 173.945 55.9405 173.774 56.072C173.604 56.2034 173.414 56.3008 173.195 56.3738C172.976 56.4468 172.747 56.4809 172.508 56.4809C172.095 56.4809 171.744 56.3689 171.457 56.145C171.17 55.9211 171.024 55.5706 171.024 55.0935C171.024 54.8452 171.072 54.6213 171.17 54.4266C171.267 54.2319 171.399 54.0664 171.559 53.9349C171.725 53.8035 171.91 53.7061 172.124 53.6331C172.338 53.5601 172.557 53.526 172.786 53.526C173.234 53.526 173.599 53.638 173.896 53.8619C174.193 54.081 174.339 54.4315 174.339 54.9134Z" fill="#D2EE04"/>
<path d="M187.532 48.4533C187.532 49.0959 187.352 49.685 186.992 50.2302C186.631 50.7754 186.042 51.1892 185.215 51.4715L187.103 56.3444H183.467L182.031 51.8269H181.851L180.887 56.3444H177.367L179.568 45.9901H183.857C184.358 45.9901 184.83 46.0193 185.273 46.0777C185.716 46.1362 186.106 46.2579 186.437 46.438C186.768 46.6181 187.03 46.8664 187.225 47.1877C187.435 47.5089 187.532 47.9325 187.532 48.4533ZM182.834 50.7851C183.117 50.7851 183.36 50.6926 183.56 50.4979C183.759 50.3081 183.925 50.0744 184.046 49.8067C184.173 49.534 184.261 49.242 184.314 48.9353C184.368 48.6237 184.397 48.356 184.397 48.1272C184.397 47.8448 184.348 47.6014 184.251 47.4018C184.153 47.2023 183.939 47.1 183.613 47.1H182.878L182.06 50.7851H182.834Z" fill="#D2EE04"/>
<path d="M190.336 53.0685C190.292 53.307 190.263 53.5358 190.248 53.7548C190.234 53.9739 190.224 54.1686 190.224 54.3439C190.224 54.4412 190.229 54.5483 190.239 54.67C190.248 54.7917 190.273 54.8988 190.312 55.0059C190.351 55.1082 190.404 55.1958 190.477 55.2688C190.55 55.3418 190.647 55.3759 190.779 55.3759C190.876 55.3759 190.988 55.3418 191.115 55.2785C191.241 55.2153 191.363 55.1228 191.49 55.0011C191.616 54.8842 191.733 54.7333 191.85 54.5629C191.962 54.3877 192.054 54.193 192.118 53.9739H194.79L194.367 55.7167C194.148 55.8578 193.899 55.9795 193.617 56.0769C193.335 56.1743 193.038 56.2521 192.721 56.3154C192.405 56.3738 192.084 56.4177 191.757 56.4469C191.431 56.4712 191.12 56.4858 190.828 56.4858C190.282 56.4858 189.776 56.4371 189.309 56.3398C188.841 56.2424 188.433 56.072 188.087 55.8335C187.736 55.595 187.464 55.2785 187.264 54.8794C187.065 54.485 186.962 53.9885 186.962 53.4043C186.962 52.8737 187.045 52.3529 187.216 51.8368C187.386 51.3257 187.668 50.873 188.063 50.4738C188.457 50.0795 188.992 49.7582 189.659 49.5197C190.326 49.2811 191.164 49.1594 192.161 49.1594C193.247 49.1594 194.065 49.3298 194.615 49.6657C195.165 50.0016 195.438 50.5322 195.438 51.2478C195.438 51.5399 195.394 51.8612 195.306 52.2019C195.219 52.5427 195.087 52.8348 194.917 53.0733H190.336V53.0685ZM192.502 51.131C192.502 50.7951 192.449 50.5663 192.342 50.4446C192.234 50.3229 192.103 50.2645 191.952 50.2645C191.777 50.2645 191.616 50.3229 191.47 50.4348C191.324 50.5468 191.193 50.7026 191.071 50.8924C190.949 51.0823 190.842 51.3014 190.745 51.5448C190.647 51.7882 190.565 52.0462 190.501 52.3188H192.361C192.381 52.1873 192.405 52.051 192.424 51.9099C192.444 51.793 192.463 51.6616 192.483 51.5204C192.497 51.3792 192.502 51.2478 192.502 51.131Z" fill="#D2EE04"/>
<path d="M197.658 59.0852H194.333L196.387 49.3345H199.045L199.337 50.3763H199.434C199.824 49.9625 200.262 49.6655 200.749 49.4903C201.231 49.3102 201.708 49.2225 202.175 49.2225C202.555 49.2225 202.871 49.281 203.129 49.3929C203.382 49.5049 203.587 49.6607 203.743 49.8554C203.894 50.0501 204.006 50.2838 204.069 50.5564C204.132 50.829 204.166 51.1162 204.166 51.418C204.166 51.5689 204.156 51.7977 204.132 52.1044C204.108 52.4111 204.059 52.747 203.986 53.1218C203.908 53.4967 203.801 53.8812 203.66 54.2804C203.519 54.6747 203.329 55.0398 203.095 55.366C202.862 55.6922 202.569 55.9599 202.214 56.1644C201.859 56.3688 201.44 56.4759 200.948 56.4759C200.676 56.4759 200.413 56.4418 200.16 56.3785C199.902 56.3153 199.673 56.2276 199.469 56.1157C199.264 56.0086 199.079 55.8771 198.923 55.7311C198.768 55.5851 198.651 55.4341 198.573 55.2832H198.475L197.658 59.0852ZM199.386 54.8938C199.649 54.8938 199.863 54.7575 200.038 54.48C200.213 54.2025 200.355 53.8764 200.462 53.5015C200.569 53.1267 200.651 52.7519 200.7 52.377C200.749 52.0022 200.773 51.7247 200.773 51.5397C200.773 51.3207 200.739 51.1454 200.666 50.9994C200.593 50.8582 200.466 50.7852 200.282 50.7852C200.077 50.7852 199.877 50.8582 199.692 51.0042C199.507 51.1503 199.371 51.2768 199.284 51.3888L198.646 54.3729C198.733 54.4946 198.836 54.6114 198.957 54.7234C199.079 54.8354 199.22 54.8938 199.386 54.8938Z" fill="#D2EE04"/>
<path d="M207.534 53.0685C207.491 53.307 207.461 53.5358 207.447 53.7548C207.432 53.9739 207.422 54.1686 207.422 54.3439C207.422 54.4412 207.427 54.5483 207.437 54.67C207.447 54.7917 207.471 54.8988 207.51 55.0059C207.549 55.1082 207.603 55.1958 207.676 55.2688C207.749 55.3418 207.846 55.3759 207.977 55.3759C208.075 55.3759 208.187 55.3418 208.313 55.2785C208.44 55.2153 208.562 55.1228 208.688 55.0011C208.815 54.8842 208.932 54.7333 209.048 54.5629C209.16 54.3877 209.253 54.193 209.316 53.9739H211.989L211.565 55.7167C211.346 55.8578 211.098 55.9795 210.816 56.0769C210.533 56.1743 210.236 56.2521 209.92 56.3154C209.603 56.3738 209.282 56.4177 208.956 56.4469C208.63 56.4712 208.318 56.4858 208.026 56.4858C207.481 56.4858 206.975 56.4371 206.507 56.3398C206.04 56.2424 205.631 56.072 205.285 55.8335C204.935 55.595 204.662 55.2785 204.463 54.8794C204.263 54.485 204.161 53.9885 204.161 53.4043C204.161 52.8737 204.244 52.3529 204.414 51.8368C204.584 51.3257 204.867 50.873 205.261 50.4738C205.655 50.0795 206.191 49.7582 206.858 49.5197C207.525 49.2811 208.362 49.1594 209.36 49.1594C210.446 49.1594 211.263 49.3298 211.813 49.6657C212.364 50.0016 212.636 50.5322 212.636 51.2478C212.636 51.5399 212.592 51.8612 212.505 52.2019C212.417 52.5427 212.286 52.8348 212.115 53.0733H207.534V53.0685ZM209.706 51.131C209.706 50.7951 209.652 50.5663 209.545 50.4446C209.438 50.3229 209.306 50.2645 209.155 50.2645C208.98 50.2645 208.82 50.3229 208.674 50.4348C208.528 50.5468 208.396 50.7026 208.274 50.8924C208.153 51.0823 208.046 51.3014 207.948 51.5448C207.851 51.7882 207.768 52.0462 207.705 52.3188H209.564C209.584 52.1873 209.608 52.051 209.628 51.9099C209.647 51.793 209.667 51.6616 209.686 51.5204C209.696 51.3792 209.706 51.2478 209.706 51.131Z" fill="#D2EE04"/>
<path d="M213.454 49.9381C214.009 49.6654 214.579 49.4659 215.158 49.3441C215.737 49.2176 216.39 49.1543 217.105 49.1543C217.801 49.1543 218.376 49.2079 218.833 49.3198C219.291 49.4269 219.656 49.5876 219.924 49.792C220.197 49.9965 220.386 50.2447 220.493 50.5271C220.601 50.8094 220.659 51.1307 220.659 51.491C220.659 51.6954 220.644 51.9193 220.62 52.1579C220.591 52.3964 220.562 52.596 220.532 52.7615L219.768 56.3492H217.144L216.852 55.3075H216.755C216.404 55.6872 216 55.9793 215.538 56.1789C215.075 56.3785 214.618 56.4807 214.16 56.4807C213.897 56.4807 213.644 56.4417 213.396 56.3687C213.148 56.2908 212.924 56.174 212.729 56.0182C212.534 55.8624 212.374 55.658 212.257 55.4146C212.135 55.1712 212.077 54.8742 212.077 54.5237C212.077 53.959 212.232 53.5112 212.544 53.1802C212.856 52.8491 213.26 52.6009 213.766 52.4305C214.272 52.2601 214.842 52.1579 215.479 52.1141C216.117 52.0702 216.755 52.0508 217.397 52.0508C217.417 51.9437 217.446 51.7879 217.48 51.5883C217.514 51.3887 217.529 51.2086 217.529 51.0577C217.529 50.863 217.475 50.678 217.373 50.5125C217.271 50.3421 217.057 50.2593 216.73 50.2593C216.351 50.2593 216.068 50.3713 215.888 50.5952C215.708 50.8192 215.591 51.0869 215.538 51.4033H213.157L213.454 49.9381ZM217.203 52.8053H216.911C216.594 52.8053 216.326 52.8443 216.103 52.927C215.879 53.0098 215.698 53.1169 215.562 53.2434C215.426 53.3749 215.324 53.5209 215.26 53.6816C215.197 53.8471 215.163 54.0077 215.163 54.1684C215.163 54.4312 215.231 54.626 215.367 54.7574C215.504 54.8888 215.664 54.9521 215.849 54.9521C216.078 54.9521 216.302 54.8694 216.526 54.7087C216.75 54.5432 216.886 54.329 216.94 54.0564L217.203 52.8053Z" fill="#D2EE04"/>
<path d="M221.151 49.3348C221.555 49.2472 221.905 49.1498 222.212 49.0427C222.514 48.9356 222.796 48.7993 223.049 48.6338C223.302 48.4732 223.551 48.2687 223.784 48.0302C224.018 47.7916 224.271 47.4995 224.544 47.149H226.223L225.751 49.3348H227.022L226.807 50.4252H225.517L224.85 53.6041C224.797 53.8523 224.753 54.0763 224.719 54.271C224.685 54.4657 224.67 54.6215 224.67 54.7286C224.67 54.9476 224.748 55.0839 224.909 55.1375C225.065 55.191 225.362 55.2202 225.795 55.2202L225.551 56.3448C225.473 56.3642 225.357 56.3837 225.201 56.3934C225.045 56.4032 224.87 56.4178 224.68 56.4324C224.49 56.447 224.295 56.4567 224.091 56.4665C223.891 56.4713 223.711 56.4762 223.56 56.4762C223.288 56.4762 223.02 56.4567 222.762 56.4178C222.499 56.3788 222.265 56.3058 222.061 56.189C221.857 56.077 221.686 55.9115 221.564 55.6924C221.438 55.4734 221.375 55.1813 221.375 54.8113C221.375 54.6799 221.384 54.5192 221.399 54.3245C221.414 54.1298 221.452 53.9107 221.506 53.6722L222.192 50.4301H220.922L221.151 49.3348Z" fill="#D2EE04"/>
<path d="M229.479 54.9134C229.479 55.1617 229.426 55.3856 229.324 55.5803C229.221 55.775 229.085 55.9405 228.915 56.072C228.744 56.2034 228.555 56.3008 228.335 56.3738C228.116 56.4468 227.888 56.4809 227.649 56.4809C227.235 56.4809 226.885 56.3689 226.598 56.145C226.31 55.9211 226.164 55.5706 226.164 55.0935C226.164 54.8452 226.213 54.6213 226.31 54.4266C226.408 54.2319 226.539 54.0664 226.7 53.9349C226.865 53.8035 227.05 53.7061 227.264 53.6331C227.479 53.5601 227.698 53.526 227.927 53.526C228.374 53.526 228.74 53.638 229.036 53.8619C229.333 54.081 229.479 54.4315 229.479 54.9134Z" fill="#D2EE04"/>
</svg>
