<svg width="54" height="70" viewBox="0 0 54 70" fill="none" xmlns="http://www.w3.org/2000/svg">
<path d="M52.946 53.0923L48.3549 48.4615V30.5128C48.3549 19.4923 42.518 10.2667 32.3392 7.82564V5.38462C32.3392 2.40513 29.9546 0 27.0006 0C24.0466 0 21.662 2.40513 21.662 5.38462V7.82564C11.4476 10.2667 5.64634 19.4564 5.64634 30.5128V48.4615L1.05518 53.0923C-1.18702 55.3538 0.378957 59.2308 3.54651 59.2308H50.4191C53.6223 59.2308 55.1882 55.3538 52.946 53.0923ZM41.2368 52.0513H12.7644V30.5128C12.7644 21.6103 18.1386 14.359 27.0006 14.359C35.8626 14.359 41.2368 21.6103 41.2368 30.5128V52.0513ZM27.0006 70C30.9156 70 34.1187 66.7692 34.1187 62.8205H19.8825C19.8825 66.7692 23.0501 70 27.0006 70Z" fill="#6B6F80"/>
</svg>
