<svg width="74" height="80" viewBox="0 0 74 80" fill="none" xmlns="http://www.w3.org/2000/svg">
<path d="M4.36756 18.4237C4.40856 17.3496 5.29122 16.5 6.3661 16.5H67.1949C68.2639 16.5 69.1439 17.3406 69.1928 18.4085L71.8264 75.9085C71.8785 77.0478 70.9689 78 69.8285 78H4.17145C3.03696 78 2.12963 77.0574 2.1729 75.9237L4.36756 18.4237Z" stroke="#6B6F80" stroke-width="4"/>
<path d="M56.0161 28V20.5C56.0161 10.2827 47.7334 2 37.5161 2C27.2988 2 19.0161 10.2827 19.0161 20.5V28" stroke="#6B6F80" stroke-width="4"/>
<circle cx="25.0161" cy="51" r="2" fill="#6B6F80"/>
<circle cx="49.0161" cy="51" r="2" fill="#6B6F80"/>
<path d="M38.5161 57.011C34.5271 57.5919 33.0161 61.011 32.0161 62.5113L46.5161 60.0113C45.0161 59.011 42.5067 56.4298 38.5161 57.011Z" fill="#6B6F80"/>
</svg>
