<svg width="24" height="24" viewBox="0 0 24 24" fill="none" xmlns="http://www.w3.org/2000/svg">
<g clip-path="url(#clip0_6873_5876)">
<mask id="mask0_6873_5876" style="mask-type:alpha" maskUnits="userSpaceOnUse" x="-1" y="0" width="25" height="25">
<rect x="-0.5" y="0.25" width="24" height="24" fill="#D9D9D9"/>
</mask>
<g mask="url(#mask0_6873_5876)">
<path d="M11.5 17.25C11.7833 17.25 12.0208 17.1542 12.2125 16.9625C12.4042 16.7708 12.5 16.5333 12.5 16.25C12.5 15.9667 12.4042 15.7292 12.2125 15.5375C12.0208 15.3458 11.7833 15.25 11.5 15.25C11.2167 15.25 10.9792 15.3458 10.7875 15.5375C10.5958 15.7292 10.5 15.9667 10.5 16.25C10.5 16.5333 10.5958 16.7708 10.7875 16.9625C10.9792 17.1542 11.2167 17.25 11.5 17.25ZM10.5 13.25H12.5V7.25H10.5V13.25ZM11.5 22.25C10.1167 22.25 8.81667 21.9875 7.6 21.4625C6.38333 20.9375 5.325 20.225 4.425 19.325C3.525 18.425 2.8125 17.3667 2.2875 16.15C1.7625 14.9333 1.5 13.6333 1.5 12.25C1.5 10.8667 1.7625 9.56667 2.2875 8.35C2.8125 7.13333 3.525 6.075 4.425 5.175C5.325 4.275 6.38333 3.5625 7.6 3.0375C8.81667 2.5125 10.1167 2.25 11.5 2.25C12.8833 2.25 14.1833 2.5125 15.4 3.0375C16.6167 3.5625 17.675 4.275 18.575 5.175C19.475 6.075 20.1875 7.13333 20.7125 8.35C21.2375 9.56667 21.5 10.8667 21.5 12.25C21.5 13.6333 21.2375 14.9333 20.7125 16.15C20.1875 17.3667 19.475 18.425 18.575 19.325C17.675 20.225 16.6167 20.9375 15.4 21.4625C14.1833 21.9875 12.8833 22.25 11.5 22.25ZM11.5 20.25C13.7333 20.25 15.625 19.475 17.175 17.925C18.725 16.375 19.5 14.4833 19.5 12.25C19.5 10.0167 18.725 8.125 17.175 6.575C15.625 5.025 13.7333 4.25 11.5 4.25C9.26667 4.25 7.375 5.025 5.825 6.575C4.275 8.125 3.5 10.0167 3.5 12.25C3.5 14.4833 4.275 16.375 5.825 17.925C7.375 19.475 9.26667 20.25 11.5 20.25Z" fill="#6B6F80"/>
</g>
</g>
<defs>
<clipPath id="clip0_6873_5876">
<rect width="24" height="24" fill="white"/>
</clipPath>
</defs>
</svg>
