<svg width="25" height="24" viewBox="0 0 25 24" fill="none" xmlns="http://www.w3.org/2000/svg">
<g clip-path="url(#clip0_115_3073)">
<mask id="mask0_115_3073" style="mask-type:luminance" maskUnits="userSpaceOnUse" x="0" y="0" width="25" height="24">
<path d="M24.0568 9.81819H12.875V14.4546H19.3114C18.7114 17.4 16.2023 19.0909 12.875 19.0909C8.94773 19.0909 5.78409 15.9273 5.78409 12C5.78409 8.07273 8.94773 4.90909 12.875 4.90909C14.5659 4.90909 16.0932 5.50909 17.2932 6.49091L20.7841 3C18.6568 1.14545 15.9296 0 12.875 0C6.22046 0 0.875 5.34546 0.875 12C0.875 18.6546 6.22046 24 12.875 24C18.875 24 24.3296 19.6364 24.3296 12C24.3296 11.2909 24.2205 10.5273 24.0568 9.81819Z" fill="white"/>
</mask>
<g mask="url(#mask0_115_3073)">
<path d="M-0.21582 19.091V4.90918L9.05691 12.0001L-0.21582 19.091Z" fill="#FBBC05"/>
</g>
<mask id="mask1_115_3073" style="mask-type:luminance" maskUnits="userSpaceOnUse" x="0" y="0" width="25" height="24">
<path d="M24.0568 9.81819H12.875V14.4546H19.3114C18.7114 17.4 16.2023 19.0909 12.875 19.0909C8.94773 19.0909 5.78409 15.9273 5.78409 12C5.78409 8.07273 8.94773 4.90909 12.875 4.90909C14.5659 4.90909 16.0932 5.50909 17.2932 6.49091L20.7841 3C18.6568 1.14545 15.9296 0 12.875 0C6.22046 0 0.875 5.34546 0.875 12C0.875 18.6546 6.22046 24 12.875 24C18.875 24 24.3296 19.6364 24.3296 12C24.3296 11.2909 24.2205 10.5273 24.0568 9.81819Z" fill="white"/>
</mask>
<g mask="url(#mask1_115_3073)">
<path d="M-0.21582 4.90918L9.05691 12.0001L12.8751 8.67282L25.966 6.54555V-1.09082H-0.21582V4.90918Z" fill="#EA4335"/>
</g>
<mask id="mask2_115_3073" style="mask-type:luminance" maskUnits="userSpaceOnUse" x="0" y="0" width="25" height="24">
<path d="M24.0568 9.81819H12.875V14.4546H19.3114C18.7114 17.4 16.2023 19.0909 12.875 19.0909C8.94773 19.0909 5.78409 15.9273 5.78409 12C5.78409 8.07273 8.94773 4.90909 12.875 4.90909C14.5659 4.90909 16.0932 5.50909 17.2932 6.49091L20.7841 3C18.6568 1.14545 15.9296 0 12.875 0C6.22046 0 0.875 5.34546 0.875 12C0.875 18.6546 6.22046 24 12.875 24C18.875 24 24.3296 19.6364 24.3296 12C24.3296 11.2909 24.2205 10.5273 24.0568 9.81819Z" fill="white"/>
</mask>
<g mask="url(#mask2_115_3073)">
<path d="M-0.21582 19.091L16.1478 6.54555L20.4569 7.091L25.966 -1.09082V25.091H-0.21582V19.091Z" fill="#34A853"/>
</g>
<mask id="mask3_115_3073" style="mask-type:luminance" maskUnits="userSpaceOnUse" x="0" y="0" width="25" height="24">
<path d="M24.0568 9.81819H12.875V14.4546H19.3114C18.7114 17.4 16.2023 19.0909 12.875 19.0909C8.94773 19.0909 5.78409 15.9273 5.78409 12C5.78409 8.07273 8.94773 4.90909 12.875 4.90909C14.5659 4.90909 16.0932 5.50909 17.2932 6.49091L20.7841 3C18.6568 1.14545 15.9296 0 12.875 0C6.22046 0 0.875 5.34546 0.875 12C0.875 18.6546 6.22046 24 12.875 24C18.875 24 24.3296 19.6364 24.3296 12C24.3296 11.2909 24.2205 10.5273 24.0568 9.81819Z" fill="white"/>
</mask>
<g mask="url(#mask3_115_3073)">
<path d="M25.9659 25.091L9.05682 12.0001L6.875 10.3637L25.9659 4.90918V25.091Z" fill="#4285F4"/>
</g>
</g>
<defs>
<clipPath id="clip0_115_3073">
<rect width="24" height="24" fill="white" transform="translate(0.5)"/>
</clipPath>
</defs>
</svg>
