<svg width="79" height="76" viewBox="0 0 79 76" fill="none" xmlns="http://www.w3.org/2000/svg">
<path d="M68.7651 30.3933L53.633 63.2569C51.22 68.4968 45.0168 70.7892 39.7769 68.3762L6.9133 53.244C1.6734 50.8311 -0.618937 44.6279 1.79405 39.388L16.9262 6.52438C19.3392 1.28448 25.5423 -1.00785 30.7822 1.40513L63.6459 16.5373C68.8858 18.9503 71.1781 25.1534 68.7651 30.3933Z" fill="#E6E6E6"/>
<path d="M58.8516 75.3624L23.3317 68.4815C17.6681 67.3849 13.9662 61.9037 15.0638 56.24L21.9448 20.7202C23.0414 15.0565 28.5226 11.3546 34.1862 12.4523L69.7061 19.3332C75.3698 20.4308 79.0716 25.911 77.974 31.5747L71.0931 67.0945C69.9965 72.7582 64.5153 76.4601 58.8516 75.3624Z" fill="#CCCCCC"/>
<path d="M74.3999 32.9753L68.3007 64.4579C67.3286 69.4771 62.4703 72.7581 57.4511 71.7861L25.9685 65.6869C25.8999 65.6732 25.8312 65.6594 25.7635 65.6447C25.6262 65.6153 25.4889 65.5819 25.3535 65.5466C20.6845 64.3117 17.7085 59.6486 18.6403 54.8373L24.7395 23.3547C25.7116 18.3355 30.5699 15.0545 35.5891 16.0265L67.0716 22.1257C72.0908 23.0978 75.3719 27.9561 74.3999 32.9753Z" fill="#CCCCCC"/>
<path d="M46.1091 69.5867L25.3368 65.5631L25.3535 65.5474C20.6845 64.3124 17.7085 59.6493 18.6403 54.838L20.1646 46.9713L24.8847 42.5701C27.8352 39.8187 32.6111 40.7437 34.3218 44.3985L38.4886 53.301L46.1091 69.5867Z" fill="white"/>
<path d="M43.303 37.5867C45.6395 36.5983 46.7323 33.903 45.7439 31.5665C44.7555 29.23 42.0601 28.1372 39.7237 29.1256C37.3872 30.114 36.2944 32.8094 37.2828 35.1458C38.2712 37.4823 40.9665 38.5751 43.303 37.5867Z" fill="white"/>
<path d="M38.4868 53.301L33.1076 58.3163C32.5446 58.8411 31.7265 58.0583 32.2248 57.4728L37.5255 51.248L38.4868 53.301Z" fill="#CCCCCC"/>
<path d="M69.8192 56.6217L68.3008 64.459C67.3287 69.4782 62.4704 72.7593 57.4512 71.7872L25.9686 65.6881C25.8999 65.6744 25.8313 65.6606 25.7636 65.6459L25.3369 65.5635L25.3536 65.5478L38.4877 53.3024L53.2451 39.5425C56.1956 36.7921 60.9716 37.7171 62.6813 41.3709L69.8182 56.6217H69.8192Z" fill="white"/>
</svg>
