<svg width="34" height="34" viewBox="0 0 34 34" fill="none" xmlns="http://www.w3.org/2000/svg">
<path d="M17 17C14.6625 17 12.6615 16.1677 10.9969 14.5031C9.33229 12.8385 8.5 10.8375 8.5 8.5C8.5 6.1625 9.33229 4.16146 10.9969 2.49688C12.6615 0.832292 14.6625 0 17 0C19.3375 0 21.3385 0.832292 23.0031 2.49688C24.6677 4.16146 25.5 6.1625 25.5 8.5C25.5 10.8375 24.6677 12.8385 23.0031 14.5031C21.3385 16.1677 19.3375 17 17 17ZM0 34V28.05C0 26.8458 0.309896 25.7391 0.929688 24.7297C1.54948 23.7203 2.37292 22.95 3.4 22.4188C5.59583 21.3208 7.82708 20.4974 10.0938 19.9484C12.3604 19.3995 14.6625 19.125 17 19.125C19.3375 19.125 21.6396 19.3995 23.9062 19.9484C26.1729 20.4974 28.4042 21.3208 30.6 22.4188C31.6271 22.95 32.4505 23.7203 33.0703 24.7297C33.6901 25.7391 34 26.8458 34 28.05V34H0Z" fill="#838799"/>
</svg>
