<svg width="24" height="24" viewBox="0 0 24 24" fill="none" xmlns="http://www.w3.org/2000/svg">
<path d="M14.6836 3.03814C14.7261 3.07198 14.7687 3.10582 14.8125 3.14068C14.8377 3.15996 14.863 3.17923 14.889 3.19909C15.087 3.37002 15.2007 3.56991 15.3133 3.80279C15.3374 3.85198 15.3374 3.85198 15.3621 3.90217C15.4137 4.00752 15.4647 4.11312 15.5156 4.21881C15.5321 4.25302 15.5486 4.28724 15.5656 4.3225C15.6857 4.57259 15.8044 4.82336 15.9228 5.07428C15.9602 5.15336 15.9976 5.23244 16.035 5.31152C16.3204 5.91565 16.6029 6.52109 16.8832 7.1276C17.0395 7.46582 17.1962 7.80387 17.3529 8.14194C17.3917 8.22576 17.4305 8.30959 17.4694 8.39341C17.7089 8.91047 17.9491 9.42721 18.1904 9.94342C18.5346 10.6797 18.8755 11.4175 19.2153 12.1559C19.2904 12.319 19.3655 12.4822 19.4409 12.6451C19.5077 12.7894 19.5742 12.9338 19.6406 13.0782C19.6589 13.1176 19.6773 13.157 19.6961 13.1976C19.9318 13.7125 20.0294 14.2505 19.8515 14.8038C19.657 15.2609 19.345 15.5956 18.8906 15.7969C18.5829 15.9161 18.3094 15.9451 17.9809 15.9203C17.9322 15.9169 17.9322 15.9169 17.8824 15.9133C17.8145 15.9084 17.7467 15.9034 17.6788 15.8983C17.5214 15.8864 17.3639 15.8761 17.2064 15.8656C17.1455 15.8615 17.0846 15.8574 17.0219 15.8532C16.1288 15.7933 16.1288 15.7933 15.2344 15.7969C15.1797 15.7991 15.125 15.8013 15.0687 15.8035C14.3261 15.8356 13.5874 15.8873 12.8496 15.9786C12.7921 15.9856 12.7346 15.9926 12.6754 15.9998C12.1798 16.0646 11.6923 16.1638 11.2031 16.2657C11.2374 16.3374 11.2374 16.3374 11.2724 16.4106C12.039 18.0157 12.039 18.0157 12.3545 18.7325C12.3858 18.8035 12.3858 18.8035 12.4178 18.8759C12.6285 19.3597 12.725 19.9115 12.5273 20.42C12.4441 20.5937 12.3529 20.7539 12.2344 20.9063C12.2151 20.9316 12.1958 20.9569 12.1759 20.983C11.808 21.4083 11.103 21.7112 10.5505 21.7629C9.97913 21.7817 9.52252 21.6061 9.10343 21.2211C8.85204 20.9654 8.71668 20.6535 8.56931 20.3321C8.53905 20.2677 8.50871 20.2033 8.4783 20.1389C8.40071 19.9741 8.32409 19.8089 8.24777 19.6435C8.17742 19.4914 8.10636 19.3396 8.03538 19.1877C7.93287 18.9681 7.83101 18.7482 7.72959 18.5281C7.64492 18.3445 7.55944 18.1614 7.47251 17.9788C7.45462 17.9412 7.43673 17.9036 7.4183 17.8649C7.38602 17.7973 7.3536 17.7297 7.321 17.6623C7.21873 17.4478 7.21873 17.4478 7.21873 17.3438C6.99405 17.4374 6.76946 17.5312 6.5449 17.6251C6.51176 17.6389 6.47862 17.6527 6.44448 17.667C6.01765 17.8454 5.59181 18.0251 5.17291 18.2216C4.68222 18.447 4.20818 18.4153 3.7053 18.2465C3.05967 17.98 2.77386 17.3947 2.50193 16.793C2.46928 16.722 2.43658 16.651 2.40381 16.58C2.33734 16.4358 2.27119 16.2915 2.2053 16.147C2.11649 15.9526 2.0261 15.759 1.93504 15.5657C1.78792 15.2531 1.64283 14.9396 1.49998 14.6251C1.47403 14.5681 1.47403 14.5681 1.44756 14.51C1.18435 13.9241 1.08336 13.4149 1.31248 12.7969C1.5872 12.2006 2.02881 11.9572 2.59637 11.6846C4.02472 10.9899 5.37553 10.1731 6.65623 9.23443C6.68631 9.21245 6.7164 9.19046 6.74739 9.1678C7.13499 8.88364 7.51104 8.59051 7.87498 8.27661C8.00285 8.16722 8.133 8.06188 8.26463 7.95709C8.79931 7.52025 9.28766 7.02885 9.77635 6.54205C9.81538 6.50324 9.85441 6.46443 9.89462 6.42444C10.1217 6.19677 10.3383 5.96345 10.5469 5.71881C10.5885 5.67094 10.6302 5.62309 10.6719 5.57525C11.0783 5.10149 11.4577 4.61091 11.8053 4.09228C11.8516 4.0233 11.8516 4.0233 11.8989 3.95293C11.959 3.86277 12.0187 3.7723 12.0778 3.6815C12.3019 3.34453 12.5295 3.09092 12.8994 2.9151C12.9378 2.89643 12.9761 2.87775 13.0157 2.85852C13.568 2.6263 14.1794 2.75695 14.6836 3.03814ZM13.5016 4.38635C13.3628 4.55186 13.2484 4.73101 13.133 4.91306C13.0252 5.08005 12.9151 5.23265 12.7807 5.37933C12.7556 5.40828 12.7304 5.43724 12.7045 5.46707C12.6299 5.55182 12.6299 5.55182 12.5526 5.62603C12.4689 5.72412 12.439 5.77741 12.4219 5.90631C12.4896 6.13604 12.5906 6.34308 12.6992 6.55599C12.763 6.68212 12.8222 6.81012 12.8814 6.93847C12.9402 7.06569 13.0003 7.19226 13.0604 7.31888C13.1427 7.49244 13.2246 7.66618 13.3066 7.8399C13.3231 7.87477 13.3396 7.90965 13.3565 7.94558C13.5092 8.26911 13.6601 8.59342 13.8105 8.91803C14.0179 9.36558 14.2259 9.81287 14.4346 10.2598C14.455 10.3036 14.455 10.3036 14.4758 10.3483C14.5448 10.496 14.6138 10.6438 14.6828 10.7915C14.7926 11.0265 14.9022 11.2616 15.0119 11.4966C15.0662 11.6129 15.1205 11.7293 15.1748 11.8456C15.3019 12.1179 15.429 12.3903 15.5557 12.6627C15.615 12.7901 15.6743 12.9175 15.7336 13.0449C15.7616 13.1051 15.7896 13.1653 15.8175 13.2255C15.8809 13.362 15.9448 13.4982 16.0104 13.6337C16.0781 13.7813 16.0781 13.7813 16.1258 13.9229C16.175 14.057 16.2137 14.1466 16.3125 14.2501C16.531 14.3208 16.7433 14.322 16.9717 14.3233C17.0904 14.3272 17.2091 14.3312 17.3278 14.3352C17.4142 14.3367 17.4142 14.3367 17.5023 14.3382C17.7107 14.3451 17.9156 14.3678 18.1222 14.3949C18.2353 14.3995 18.2353 14.3995 18.323 14.3388C18.3873 14.2479 18.3873 14.2479 18.3671 14.1163C18.3294 13.9738 18.2831 13.8515 18.2199 13.7185C18.1969 13.6696 18.1739 13.6207 18.1502 13.5704C18.1248 13.5172 18.0994 13.464 18.0732 13.4092C18.032 13.322 17.991 13.2347 17.9499 13.1474C17.9204 13.0846 17.8908 13.0219 17.8612 12.9591C17.6897 12.5957 17.5219 12.2306 17.3539 11.8656C17.0616 11.2308 16.7677 10.5968 16.4716 9.96372C16.2588 9.50862 16.0477 9.05279 15.8367 8.59685C15.5082 7.88685 15.1778 7.17781 14.8436 6.47046C14.6952 6.15616 14.5478 5.84147 14.4027 5.52563C14.3887 5.49516 14.3746 5.46468 14.3602 5.43328C14.2944 5.29032 14.2288 5.14726 14.1637 5.004C14.0032 4.63961 14.0032 4.63961 13.7812 4.31256C13.5984 4.29302 13.5984 4.29302 13.5016 4.38635ZM11.1727 7.33839C11.1177 7.39369 11.0629 7.44912 11.0081 7.50463C10.9789 7.53403 10.9497 7.56342 10.9196 7.59371C10.7942 7.71985 10.6691 7.84625 10.544 7.97264C9.89398 8.62874 9.89398 8.62874 9.56248 8.90631C9.50658 8.95525 9.4508 9.00433 9.39512 9.05352C8.50249 9.83613 7.54903 10.5434 6.56248 11.2032C6.53222 11.2235 6.50196 11.2438 6.47079 11.2648C5.57291 11.865 4.63326 12.3885 3.67179 12.8788C3.57284 12.9296 3.4739 12.9804 3.37498 13.0313C3.34707 13.0455 3.31916 13.0597 3.2904 13.0743C3.20526 13.1177 3.12045 13.1617 3.03568 13.2058C2.98509 13.2319 2.9345 13.2579 2.88237 13.2847C2.7521 13.3508 2.7521 13.3508 2.71873 13.5001C2.76877 13.632 2.82271 13.7565 2.88279 13.8838C2.90128 13.924 2.91976 13.9641 2.93881 14.0054C3.00555 14.1497 3.07306 14.2936 3.1406 14.4376C3.16834 14.4969 3.19605 14.5563 3.22376 14.6157C3.38901 14.97 3.55504 15.3238 3.72169 15.6774C3.80465 15.8537 3.88657 16.0304 3.96733 16.2076C3.99315 16.264 3.99315 16.264 4.0195 16.3214C4.04959 16.3872 4.07938 16.4531 4.10879 16.5191C4.17895 16.6717 4.21541 16.7322 4.35935 16.8282C4.52107 16.8112 4.65361 16.7606 4.79936 16.6907C4.8388 16.6721 4.87824 16.6535 4.91888 16.6344C4.96143 16.6142 5.00399 16.5941 5.04783 16.5733C8.04922 15.1867 11.3012 14.5306 14.5781 14.2501C14.512 14.0379 14.4283 13.839 14.3326 13.6389C14.3177 13.6075 14.3029 13.5761 14.2876 13.5437C14.2556 13.4763 14.2237 13.4089 14.1916 13.3416C14.1061 13.1618 14.0211 12.9817 13.936 12.8017C13.9188 12.7654 13.9016 12.729 13.8839 12.6916C13.7289 12.3642 13.576 12.0358 13.4238 11.7071C13.2164 11.2595 13.0085 10.8123 12.7998 10.3653C12.7724 10.3066 12.745 10.2479 12.7176 10.1892C12.5921 9.92027 12.4665 9.6514 12.3407 9.38261C12.0041 8.66327 11.6701 7.94285 11.3437 7.21881C11.2738 7.21339 11.2738 7.21339 11.1727 7.33839ZM9.32755 16.6405C9.27431 16.6566 9.27431 16.6566 9.21998 16.673C9.16474 16.6904 9.16474 16.6904 9.10838 16.7081C9.071 16.7195 9.03363 16.7308 8.99513 16.7426C8.90288 16.7708 8.81079 16.7994 8.71873 16.8282C8.80677 17.1115 8.91187 17.3778 9.04118 17.6446C9.05846 17.6808 9.07574 17.717 9.09354 17.7543C9.14905 17.8705 9.20488 17.9866 9.26072 18.1026C9.33715 18.2622 9.4134 18.4219 9.4896 18.5816C9.50823 18.6206 9.52685 18.6596 9.54604 18.6998C9.71535 19.0551 9.87844 19.413 10.0356 19.7739C10.052 19.8109 10.0684 19.8478 10.0852 19.8859C10.1055 19.9326 10.1055 19.9326 10.1262 19.9802C10.1779 20.0735 10.2299 20.1358 10.3125 20.2032C10.5787 20.2032 10.7957 20.0589 11.0156 19.9219C11.0311 19.9065 11.0465 19.891 11.0625 19.8751C11.0435 19.6297 10.9756 19.431 10.8684 19.2124C10.8534 19.181 10.8385 19.1496 10.8231 19.1173C10.7744 19.0152 10.7251 18.9134 10.6758 18.8116C10.6246 18.705 10.5736 18.5984 10.5226 18.4917C10.488 18.4194 10.4534 18.347 10.4186 18.2747C10.3048 18.037 10.1939 17.7981 10.0852 17.558C10.0575 17.4969 10.0297 17.4358 10.0019 17.3747C9.94988 17.2602 9.89844 17.1455 9.84725 17.0307C9.81243 16.9543 9.81243 16.9543 9.7769 16.8763C9.75688 16.8317 9.73686 16.7871 9.71623 16.7412C9.61294 16.5682 9.49992 16.5874 9.32755 16.6405Z" fill="#3A86DD"/>
<path d="M20.9569 10.693C20.9951 10.707 21.0333 10.721 21.0726 10.7354C21.1526 10.7648 21.2325 10.7944 21.3123 10.8241C21.4338 10.8692 21.5557 10.9136 21.6776 10.958C21.7557 10.9868 21.8338 11.0157 21.9119 11.0446C21.948 11.0577 21.984 11.0708 22.0212 11.0843C22.2907 11.1855 22.5743 11.2948 22.7052 11.5694C22.7996 11.784 22.8221 11.9609 22.752 12.1894C22.6588 12.4115 22.5354 12.5349 22.3355 12.6651C21.9794 12.7813 21.6499 12.672 21.3128 12.5457C21.2459 12.5214 21.2459 12.5214 21.1776 12.4966C21.0839 12.4624 20.9903 12.4279 20.8968 12.393C20.754 12.3399 20.6109 12.288 20.4676 12.2362C20.3763 12.2027 20.285 12.1692 20.1937 12.1355C20.1511 12.1201 20.1085 12.1047 20.0646 12.0888C19.7937 11.9869 19.5843 11.8876 19.4151 11.6426C19.3306 11.4023 19.3096 11.1641 19.3919 10.9192C19.4959 10.7168 19.6301 10.6051 19.8282 10.5C20.2106 10.3966 20.5984 10.5595 20.9569 10.693Z" fill="#3A86DD"/>
<path d="M21.3328 6.33232C21.5236 6.47891 21.6255 6.64169 21.6887 6.87321C21.7203 7.11899 21.6659 7.32075 21.5301 7.52562C21.3324 7.73544 21.0627 7.83388 20.8047 7.95372C20.6778 8.01281 20.5514 8.07296 20.4251 8.13324C20.3054 8.19004 20.1852 8.24593 20.065 8.30161C20.0052 8.32944 19.9455 8.35755 19.886 8.38595C19.5433 8.54887 19.2292 8.69669 18.8436 8.62498C18.6099 8.50811 18.4453 8.34404 18.328 8.10936C18.2991 7.8506 18.2962 7.60878 18.4489 7.38914C18.6588 7.14761 19.0047 7.01573 19.2897 6.88255C19.3262 6.86531 19.3626 6.84806 19.4002 6.8303C19.4766 6.79426 19.553 6.75835 19.6295 6.72254C19.7465 6.66773 19.8632 6.61248 19.98 6.55717C20.0546 6.52205 20.1291 6.48696 20.2037 6.45189C20.2385 6.43543 20.2733 6.41898 20.3091 6.40203C20.6463 6.24468 20.9811 6.14996 21.3328 6.33232Z" fill="#3A86DD"/>
<path d="M18.1991 2.30279C18.395 2.43638 18.5328 2.58315 18.6092 2.81256C18.6445 3.15938 18.576 3.43832 18.4518 3.75976C18.4356 3.80328 18.4194 3.8468 18.4027 3.89164C18.3685 3.98289 18.334 4.07399 18.2991 4.16496C18.2459 4.30389 18.194 4.44325 18.1423 4.58273C18.1088 4.67172 18.0753 4.76068 18.0416 4.84961C18.0262 4.89102 18.0107 4.93243 17.9948 4.97509C17.8915 5.24257 17.7904 5.45129 17.5458 5.61627C17.2748 5.71341 17.0326 5.71366 16.7665 5.59869C16.5814 5.49233 16.4663 5.36271 16.4061 5.15631C16.3689 4.80249 16.427 4.50846 16.5533 4.17981C16.5685 4.13855 16.5836 4.09728 16.5993 4.05477C16.6312 3.96841 16.6635 3.88219 16.6962 3.79612C16.746 3.66492 16.7945 3.53328 16.8428 3.40152C16.8742 3.31717 16.9056 3.23285 16.9371 3.14856C16.9587 3.0901 16.9587 3.0901 16.9808 3.03047C17.0994 2.72005 17.2208 2.44181 17.5315 2.28247C17.7613 2.20272 17.9727 2.22442 18.1991 2.30279Z" fill="#3A86DD"/>
</svg>
