<svg width="24" height="24" viewBox="0 0 24 24" fill="none" xmlns="http://www.w3.org/2000/svg">
<mask id="mask0_2407_2039" style="mask-type:alpha" maskUnits="userSpaceOnUse" x="0" y="0" width="24" height="24">
<rect width="24" height="24" fill="#D9D9D9"/>
</mask>
<g mask="url(#mask0_2407_2039)">
<path d="M3.42402 19.9998L1.99902 18.5998L6.09902 14.4998C6.61569 13.9832 6.96986 13.3373 7.16152 12.5623C7.35319 11.7873 7.44902 10.5998 7.44902 8.99985C7.44902 8.03318 7.66569 7.08318 8.09902 6.14985C8.53236 5.21652 9.14902 4.34985 9.94902 3.54985C11.4657 2.03318 13.1407 1.17485 14.974 0.974848C16.8074 0.774848 18.3157 1.28318 19.499 2.49985C20.699 3.69985 21.199 5.21651 20.999 7.04985C20.799 8.88318 19.949 10.5498 18.449 12.0498C17.649 12.8498 16.7824 13.4665 15.849 13.8998C14.9157 14.3332 13.9657 14.5498 12.999 14.5498C11.3824 14.5498 10.199 14.6415 9.44902 14.8248C8.69902 15.0082 8.05736 15.3665 7.52402 15.8998L3.42402 19.9998ZM13.4995 8.99985C14.2828 9.76651 12.1407 12.6998 13.474 12.4998C14.8074 12.2998 13.1995 8.54985 14.2495 7.49985C15.3162 6.43318 18.7532 8.36235 18.9615 7.03735C19.1699 5.71235 16.5328 7.49985 15.7495 6.74985C14.9495 5.94985 16.2532 2.82485 14.9615 3.02485C13.6699 3.22485 16.0828 7.18318 14.9995 8.24985C13.9495 9.29985 9.71152 7.16235 9.48652 8.48735C9.26152 9.81235 12.7328 8.21651 13.4995 8.99985ZM17.999 22.9998C16.899 22.9998 15.9574 22.6082 15.174 21.8248C14.3907 21.0415 13.999 20.0998 13.999 18.9998C13.999 17.8998 14.3907 16.9582 15.174 16.1748C15.9574 15.3915 16.899 14.9998 17.999 14.9998C19.099 14.9998 20.0407 15.3915 20.824 16.1748C21.6074 16.9582 21.999 17.8998 21.999 18.9998C21.999 20.0998 21.6074 21.0415 20.824 21.8248C20.0407 22.6082 19.099 22.9998 17.999 22.9998ZM17.999 20.9998C18.549 20.9998 16.1078 17.6415 16.4995 17.2498C16.8912 16.8582 19.999 19.5498 19.999 18.9998C19.999 18.4498 17.6412 19.8915 17.2495 19.4998C16.8578 19.1082 18.549 16.9998 17.999 16.9998C17.449 16.9998 19.1412 19.6082 18.7495 19.9998C18.3578 20.3915 15.999 18.4498 15.999 18.9998C15.999 19.5498 17.8657 18.2082 18.2573 18.5998C18.649 18.9915 17.449 20.9998 17.999 20.9998Z" fill="white"/>
</g>
</svg>
